<?xml version="1.0" encoding="utf-8"?>
<!-- Generator: Adobe Illustrator 16.0.0, SVG Export Plug-In . SVG Version: 6.00 Build 0)  -->
<!DOCTYPE svg PUBLIC "-//W3C//DTD SVG 1.1//EN" "http://www.w3.org/Graphics/SVG/1.1/DTD/svg11.dtd">
<svg version="1.1" id="Layer_1" xmlns="http://www.w3.org/2000/svg" xmlns:xlink="http://www.w3.org/1999/xlink" x="0px" y="0px"
	 width="300px" height="117px" viewBox="0 0 300 117" enable-background="new 0 0 300 117" xml:space="preserve">
<path fill="#80BA41" d="M45.789,60.003c0,0-30.725-3.127-36.008-33.36c0,0,17.496-0.787,25.4,12.063c0,0-4.608-3.597-17.42-5.882
	c0.188,0.824,3.634,16.521,27.049,26.636L45.789,60.003z"/>
<path fill="#80BA41" d="M36.229,41.589c-1.493-1.254-3.191-2.374-5.099-3.354c-4.232-2.174-8.521-3.126-11.093-3.532
	c3.224,8.14,9.66,13.961,14.71,17.512c3.207,2.254,6.244,3.882,8.404,4.92C41.271,54.227,38.161,48.713,36.229,41.589"/>
<path fill-rule="evenodd" clip-rule="evenodd" fill="#C77919" d="M61.328,82.4c-14.746,4.349-24.607,18.914-23.773,34.461
	c1.927-5.969,11.328-10.479,28.205-13.532c19.001-4.539,29.68-19.908,32.035-46.108c-5.197,1.061-8.701,7.168-10.509,18.323
	C84.213,85.758,76.927,90.15,65.429,88.718c1.532-0.921,4.517-2.027,8.953-3.324c7.012-2.72,9.967-6.931,8.863-12.635
	C81.285,75.669,73.979,78.882,61.328,82.4"/>
<path fill-rule="evenodd" clip-rule="evenodd" fill="#C77919" d="M36.467,82.4c3.884,1.145,7.43,3,10.53,5.397
	c-0.349,0.32-0.693,0.648-1.03,0.984c-4.328,4.306-7.486,9.675-9.249,15.474c-1.491-0.322-3.052-0.631-4.683-0.926
	C13.034,98.791,2.355,83.422,0,57.221c5.198,1.061,8.701,7.168,10.509,18.323c3.073,10.214,10.358,14.606,21.856,13.174
	c-1.532-0.921-4.516-2.027-8.952-3.324c-7.013-2.72-9.966-6.931-8.862-12.635C16.51,75.669,23.816,78.882,36.467,82.4"/>
<path fill="#80BA41" d="M51.716,41.864c0.135-0.191,0.276-0.379,0.415-0.568c0.189-0.801,0.356-1.603,0.497-2.406
	c0.849-4.864,0.81-9.774-0.117-14.592c-1.021-5.305-2.911-9.348-4.14-11.571C46.273,16,44.859,19.982,44.158,24.6
	c-0.686,4.514-0.696,9.634-0.03,15.22c0.626,5.254,1.741,9.938,2.627,13.119C47.579,49.441,49.081,45.604,51.716,41.864"/>
<path fill="#80BA41" d="M48.523,65.905c0,0-7.437-33.569,38.948-39.408c0,0-1.91,26.249-35.034,33.016
	c0,0,22.811-10.096,27.449-26.467C79.886,33.045,53.419,34.191,48.523,65.905"/>
<path fill-rule="evenodd" clip-rule="evenodd" fill="#7B4107" d="M61.958,67.222c-13.624-1.153-22.82-0.346-24.774-0.071
	c-5.825,0.866-11.524,1.761-19.45,4.672c1.347,1.118,3.828,2.272,4.97,2.772c4.618,2.023,9.727,3.561,14.574,4.929
	c4.208,1.187,8.092,3.239,11.546,5.906l0.036,0.029c3.462-2.688,7.395-4.712,11.641-5.933c3.331-0.956,16.176-4.709,19.65-7.77
	C72.599,69.001,66.556,67.674,61.958,67.222"/>
<path fill="#80BA41" d="M51.733,57.959c0.827-2.295,2.287-5.637,4.667-9.065c2.48-3.572,5.467-6.543,8.875-8.83
	c3.617-2.427,7.733-4.092,12.264-4.965c-0.65,1.699-1.867,4.24-4.066,7.137C70.061,46.729,63.573,52.949,51.733,57.959"/>
<path fill="#80BA41" d="M46.496,58.038c0,0-23.299-29.74,2.186-57.899c0,0,16.14,16.524,6.154,35.296c0,0,1.55-13.223-6.363-25.556
	c0,0-11.382,13.079-3.747,40.332L46.496,58.038z"/>
<path fill="#80BA41" d="M127.39,12.358l5.505-0.027c3.114,0,5.422,0.45,6.924,1.349c1.965,1.156,2.948,3.148,2.948,5.974
	c0,2.643-1.539,5.075-4.616,7.295c-0.853,0.606-1.678,1.184-2.475,1.734c4.467,0.496,7.424,2.313,8.87,5.451
	c0.519,1.101,0.779,2.281,0.779,3.538c0,1.257-0.237,2.391-0.709,3.4c-0.473,1.009-1.104,1.978-1.891,2.904
	c-0.788,0.927-1.687,1.803-2.697,2.629c-1.01,0.826-2.054,1.569-3.128,2.229c-2.966,1.781-5.571,2.763-7.813,2.946
	c-1.595,0.128-3.003,0.193-4.227,0.193h-6.256c0.815-1.138,1.307-1.964,1.473-2.478c0.26-0.771,0.39-1.835,0.39-3.193V16.103h-6.118
	c2.948-2.496,4.746-3.744,5.395-3.744H127.39z M125.86,42.42c0,2.111-0.593,4.047-1.78,5.809h7.758c2.169,0,3.772-0.298,4.811-0.895
	c1.037-0.596,1.825-1.321,2.363-2.175c0.537-0.854,0.806-1.986,0.806-3.4c0-1.413-0.195-2.625-0.584-3.634s-0.917-1.862-1.585-2.56
	s-1.456-1.257-2.363-1.679c-0.909-0.422-1.882-0.743-2.92-0.964c-1.687-0.385-3.856-0.578-6.507-0.578V42.42z M125.86,28.711
	c1.168-0.037,2.623-0.06,4.366-0.069c1.742-0.009,3.003,0.014,3.782,0.069c1.854-0.569,2.938-1.661,3.253-3.276
	c0.092-0.568,0.139-1.211,0.139-1.927c0-5.065-3.198-7.598-9.594-7.598c-0.667,0-1.316,0.019-1.946,0.055V28.711z"/>
<path fill="#80BA41" d="M156.948,45.971c0,1.835,0.538,2.753,1.613,2.753c0.371,0,0.936-0.156,1.696-0.468
	c-0.723,1.597-1.807,2.799-3.253,3.606c-0.742,0.422-1.529,0.61-2.363,0.564c-0.834-0.046-1.432-0.271-1.793-0.674
	c-0.362-0.404-0.645-0.89-0.848-1.459c-0.297-0.899-0.445-2.055-0.445-3.468V15.387c0-1.945-0.344-3.239-1.029-3.882
	c-0.315-0.293-0.714-0.44-1.196-0.44c-0.797,0-1.668,0.129-2.614,0.385c2.262-1.762,5.673-4.064,10.233-6.91v25.244
	c2.317-2.019,4.69-3.395,7.119-4.129c0.89-0.275,1.751-0.413,2.586-0.413c0.834,0,1.627,0.133,2.377,0.399
	c0.751,0.266,1.423,0.638,2.016,1.115c1.316,1.083,1.975,2.432,1.975,4.046v14.012c0,2.422,0.593,3.763,1.779,4.02
	c0.333,0.073,0.686,0.11,1.057,0.11c0.575,0,1.381-0.229,2.419-0.688c-1.539,1.945-3.327,3.221-5.366,3.826
	c-0.705,0.22-1.46,0.331-2.267,0.331c-0.806,0-1.432-0.193-1.877-0.578c-0.445-0.386-0.75-0.872-0.917-1.459
	c-0.167-0.587-0.25-1.229-0.25-1.927V36.116c0-2.808-0.436-4.698-1.307-5.67c-0.797-0.918-2.271-1.377-4.421-1.377
	c-2.874,0-4.477,1.946-4.811,5.836c-0.074,0.991-0.111,1.909-0.111,2.753V45.971z"/>
<path fill="#80BA41" d="M203.83,28.188c0.945,1.064,1.683,2.281,2.211,3.647c0.528,1.368,0.792,2.74,0.792,4.116
	c0,1.376-0.204,2.721-0.611,4.033c-0.408,1.312-0.979,2.574-1.71,3.785c-0.732,1.211-1.595,2.345-2.586,3.399
	c-0.992,1.056-2.081,1.978-3.268,2.767c-2.521,1.67-5.07,2.505-7.647,2.505c-3.021,0-5.588-1.165-7.702-3.496
	c-2.058-2.239-3.086-4.863-3.086-7.873c0-2.57,0.788-5.148,2.363-7.736c2.354-3.927,5.562-6.579,9.622-7.956
	c1.298-0.458,2.67-0.688,4.115-0.688c1.446,0,2.822,0.317,4.13,0.95C201.759,26.274,202.885,27.124,203.83,28.188 M190.678,28.38
	c-1.854,0-3.207,0.89-4.06,2.67c-0.668,1.395-1.001,2.973-1.001,4.735s0.237,3.4,0.709,4.914c0.473,1.514,1.172,2.868,2.1,4.061
	c2.057,2.68,4.708,4.02,7.952,4.02c1.891,0,3.263-0.936,4.115-2.808c0.612-1.395,0.918-3,0.918-4.817
	c0-3.542-0.997-6.556-2.989-9.043C196.429,29.624,193.848,28.38,190.678,28.38"/>
<path fill="#80BA41" d="M234.474,28.188c0.945,1.064,1.683,2.281,2.21,3.647c0.529,1.368,0.793,2.74,0.793,4.116
	c0,1.376-0.204,2.721-0.611,4.033c-0.408,1.312-0.979,2.574-1.711,3.785c-0.732,1.211-1.594,2.345-2.586,3.399
	c-0.991,1.056-2.081,1.978-3.267,2.767c-2.521,1.67-5.07,2.505-7.647,2.505c-3.021,0-5.589-1.165-7.702-3.496
	c-2.058-2.239-3.087-4.863-3.087-7.873c0-2.57,0.788-5.148,2.363-7.736c2.354-3.927,5.562-6.579,9.621-7.956
	c1.298-0.458,2.67-0.688,4.115-0.688c1.446,0,2.823,0.317,4.13,0.95C232.401,26.274,233.528,27.124,234.474,28.188 M221.32,28.38
	c-1.854,0-3.207,0.89-4.06,2.67c-0.667,1.395-1.001,2.973-1.001,4.735s0.236,3.4,0.709,4.914c0.473,1.514,1.173,2.868,2.1,4.061
	c2.058,2.68,4.709,4.02,7.953,4.02c1.891,0,3.263-0.936,4.115-2.808c0.611-1.395,0.918-3,0.918-4.817
	c0-3.542-0.997-6.556-2.99-9.043C227.072,29.624,224.491,28.38,221.32,28.38"/>
<path fill="#80BA41" d="M264.033,29.922c4.115-3.12,7.248-4.68,9.398-4.68c1.445,0,2.586,0.596,3.42,1.79
	c0.723,1.009,1.084,2.267,1.084,3.771v13.158c0,1.67,0.102,2.753,0.307,3.249c0.443,0.973,1.391,1.459,2.836,1.459
	c0.74,0,1.445-0.138,2.113-0.413c-1.65,1.414-2.791,2.322-3.42,2.726c-1.445,0.936-2.711,1.404-3.795,1.404
	c-1.086,0-1.855-0.188-2.309-0.564c-0.455-0.376-0.775-0.858-0.959-1.445c-0.205-0.642-0.307-1.964-0.307-3.964V36.033
	c0-2.019-0.189-3.464-0.57-4.335s-0.848-1.528-1.404-1.968c-0.557-0.44-1.209-0.661-1.961-0.661c-0.75,0-1.33,0.11-1.736,0.33
	c-0.408,0.22-0.762,0.505-1.057,0.854c-1.113,1.303-1.67,3.414-1.67,6.332v7.818c0,1.358,0.148,2.294,0.445,2.808
	c0.557,0.973,1.482,1.459,2.781,1.459c0.74,0,1.445-0.138,2.113-0.413c-1.65,1.414-2.791,2.322-3.42,2.726
	c-1.447,0.936-2.711,1.404-3.797,1.404c-1.084,0-1.854-0.188-2.307-0.564c-0.455-0.376-0.775-0.858-0.959-1.445
	c-0.205-0.642-0.307-1.964-0.307-3.964V36.033c0-2.019-0.191-3.464-0.57-4.335s-0.848-1.528-1.404-1.968
	c-0.557-0.44-1.223-0.661-2.002-0.661s-1.381,0.147-1.807,0.44c-0.427,0.294-0.793,0.684-1.099,1.17s-0.552,1.037-0.736,1.652
	c-0.186,0.615-0.334,1.243-0.445,1.885c-0.167,1.101-0.25,2.249-0.25,3.441v8.506c0,1.175,0.361,1.973,1.084,2.395
	c0.26,0.165,0.584,0.248,0.974,0.248c0.389,0,0.797-0.091,1.223-0.275c-2.132,1.817-3.633,2.937-4.504,3.358
	c-0.872,0.422-1.567,0.633-2.086,0.633c-1.408,0-2.113-0.807-2.113-2.422V34.244c0-0.643,0.009-1.285,0.028-1.927
	c0.018-0.642-0.047-1.229-0.195-1.762c-0.352-1.156-1.362-1.734-3.03-1.734c-0.798,0-1.595,0.147-2.392,0.44
	c0.481-0.165,1.103-0.596,1.863-1.294c1.482-1.321,2.512-2.092,3.086-2.312c1.187-0.422,2.184-0.633,2.989-0.633
	c0.807,0,1.419,0.147,1.835,0.44c0.418,0.293,0.719,0.67,0.904,1.128c0.223,0.569,0.334,1.67,0.334,3.304
	c2.409-1.89,4.746-3.276,7.007-4.157c0.852-0.331,1.621-0.496,2.307-0.496c0.688,0,1.295,0.128,1.822,0.385
	c0.529,0.257,0.979,0.606,1.348,1.046C263.486,27.573,263.921,28.656,264.033,29.922"/>
<path fill="#80BA41" d="M299.152,48.586c-0.557,0.44-1.098,0.89-1.627,1.349c-0.527,0.459-1.08,0.881-1.654,1.266
	c-1.334,0.862-2.613,1.294-3.838,1.294c-1.148,0-1.955-0.175-2.418-0.523c-0.945-0.697-1.418-1.982-1.418-3.854V35.07
	c0-1.982-0.361-3.267-1.086-3.854c-0.332-0.275-0.693-0.413-1.084-0.413c-0.389,0-0.719,0.023-0.986,0.069
	c-0.27,0.046-0.543,0.097-0.82,0.151c-0.279,0.055-0.566,0.11-0.863,0.166c0.928-0.716,1.795-1.358,2.6-1.927
	c0.807-0.568,1.498-1.046,2.072-1.432c0.574-0.385,1.373-0.931,2.393-1.638s2.076-1.344,3.17-1.914v19.436
	c0,1.872,0.119,3.056,0.361,3.551c0.518,1.009,1.668,1.514,3.447,1.514C297.882,48.779,298.466,48.715,299.152,48.586
	 M293.341,5.256l0.166,3.138v1.432c0,0.881-0.111,1.418-0.334,1.61c-0.223,0.193-0.463,0.381-0.723,0.564
	c-1.039,0.734-2.539,1.726-4.504,2.973c0.092-1.835,0.139-2.785,0.139-2.849c0-0.064-0.047-1.105-0.139-3.125L293.341,5.256z"/>
<path fill="#80BA41" d="M112.526,64.114c3.021-2.496,4.82-3.744,5.395-3.744h24.275c-0.26,0.037-0.653,0.285-1.182,0.743
	c-0.528,0.459-0.978,0.849-1.349,1.17c-0.371,0.321-0.732,0.61-1.084,0.867c-0.834,0.643-1.437,0.964-1.808,0.964h-13.625v14.976
	h13.486c-0.241,0.037-0.631,0.289-1.168,0.757c-0.538,0.468-0.992,0.858-1.363,1.17c-0.371,0.313-0.732,0.606-1.084,0.881
	c-0.816,0.642-1.418,0.963-1.808,0.963h-8.064v6.441c0,3.304-0.667,5.616-2.002,6.938h8.926c-0.26,0.037-0.654,0.284-1.182,0.743
	c-0.529,0.459-0.978,0.849-1.349,1.17s-0.732,0.619-1.084,0.895c-0.834,0.624-1.437,0.937-1.808,0.937h-9.426
	c1.668-2.569,2.502-4.763,2.502-6.58V82.861h-3.893c1.297-1.028,2.595-2.038,3.893-3.028V64.114H112.526z"/>
<path fill="#80BA41" d="M157.184,91.835l-0.056,1.927c0,1.432,0.408,2.34,1.224,2.726c0.314,0.146,0.676,0.22,1.084,0.22
	c0.649,0,1.316-0.146,2.002-0.44c-0.705,0.294-1.316,0.68-1.835,1.156c-0.52,0.478-1.047,0.945-1.585,1.404
	c-1.334,1.101-2.679,1.651-4.032,1.651c-1.353,0-2.076-0.771-2.169-2.313c-0.037-0.403-0.056-0.807-0.056-1.211
	c-3.336,2.294-6.395,3.44-9.176,3.44c-2.354,0-3.986-0.706-4.894-2.119c-0.333-0.514-0.5-1.221-0.5-2.12
	c0-0.898,0.278-1.803,0.834-2.711c0.556-0.909,1.26-1.739,2.113-2.491c1.52-1.395,3.355-2.542,5.506-3.441
	c1.594-0.679,3.643-1.064,6.146-1.156v-1.211c0-2.918-0.269-4.891-0.807-5.918c-0.538-1.028-1.233-1.785-2.085-2.271
	c-0.853-0.486-1.854-0.729-3.003-0.729c-1.946,0-3.661,0.376-5.144,1.128c2.039-1.67,3.531-2.771,4.477-3.304
	c1.946-1.083,3.712-1.624,5.297-1.624s2.776,0.23,3.573,0.688c0.797,0.458,1.427,1.064,1.891,1.817
	c0.797,1.321,1.195,3.221,1.195,5.698V91.835z M144.115,95.786c0.444,0.321,0.964,0.555,1.557,0.702
	c0.593,0.146,1.474,0.22,2.642,0.22s2.326-0.275,3.476-0.825v-5.781h-4.505c-1.613,0-3.022,0.109-4.227,0.33
	c-0.241,0.789-0.361,1.542-0.361,2.258c0,0.715,0.125,1.33,0.375,1.844C143.323,95.047,143.67,95.464,144.115,95.786"/>
<path fill="#80BA41" d="M189.079,73.226c-2.243,3.267-4.96,4.9-8.148,4.9c-0.519,0-1.187-0.202-2.002-0.605
	c-1.557-0.771-2.609-1.156-3.156-1.156c-0.547,0-0.987,0.175-1.321,0.523c-0.334,0.349-0.612,0.835-0.834,1.459
	c-0.5,1.358-0.751,3.12-0.751,5.285v10.544c0,1.175,0.362,1.973,1.085,2.395c0.259,0.165,0.583,0.248,0.973,0.248
	c0.39,0,0.797-0.092,1.224-0.275c-0.371,0.33-0.732,0.721-1.084,1.17c-0.353,0.45-0.751,0.886-1.196,1.308
	c-1.057,1.009-2.308,1.515-3.754,1.515c-0.742,0-1.372-0.234-1.891-0.702c-0.519-0.469-0.778-1.042-0.778-1.721V82.255
	c0-0.642,0.009-1.284,0.028-1.927c0.018-0.642-0.046-1.229-0.195-1.762c-0.353-1.156-1.363-1.734-3.031-1.734
	c-0.797,0-1.595,0.147-2.392,0.44c0.482-0.165,1.103-0.596,1.863-1.294c1.483-1.322,2.512-2.092,3.086-2.313
	c1.187-0.422,2.146-0.633,2.878-0.633c0.732,0,1.297,0.105,1.696,0.316c0.398,0.211,0.709,0.5,0.932,0.867
	c0.37,0.605,0.556,1.542,0.556,2.808c0.538-0.403,1.126-0.858,1.766-1.362c0.639-0.505,1.302-0.987,1.988-1.445
	c1.65-1.083,3.087-1.624,4.31-1.624c0.723,0,1.483,0.202,2.28,0.605c0.797,0.404,1.39,0.698,1.78,0.881
	c0.39,0.184,0.75,0.275,1.084,0.275C186.817,74.354,187.818,73.979,189.079,73.226"/>
<path fill="#80BA41" d="M211.241,77.933c4.115-3.12,7.247-4.68,9.398-4.68c1.446,0,2.586,0.596,3.42,1.789
	c0.724,1.01,1.085,2.267,1.085,3.771v13.159c0,1.67,0.102,2.753,0.306,3.248c0.444,0.973,1.391,1.459,2.836,1.459
	c0.741,0,1.446-0.138,2.114-0.413c-1.65,1.413-2.791,2.322-3.421,2.726c-1.446,0.936-2.711,1.404-3.796,1.404
	c-1.084,0-1.854-0.189-2.308-0.564c-0.454-0.376-0.774-0.858-0.96-1.445c-0.204-0.643-0.306-1.964-0.306-3.965V84.044
	c0-2.019-0.189-3.464-0.569-4.336c-0.381-0.871-0.849-1.528-1.404-1.968c-0.557-0.44-1.21-0.661-1.961-0.661
	c-0.75,0-1.33,0.11-1.737,0.331c-0.408,0.22-0.761,0.505-1.058,0.854c-1.111,1.303-1.668,3.413-1.668,6.331v7.819
	c0,1.358,0.148,2.294,0.445,2.808c0.556,0.973,1.482,1.459,2.78,1.459c0.741,0,1.446-0.138,2.113-0.413
	c-1.65,1.413-2.79,2.322-3.42,2.726c-1.446,0.936-2.712,1.404-3.796,1.404s-1.854-0.189-2.308-0.564
	c-0.454-0.376-0.774-0.858-0.96-1.445c-0.204-0.643-0.306-1.964-0.306-3.965V84.044c0-2.019-0.19-3.464-0.569-4.336
	c-0.381-0.871-0.849-1.528-1.405-1.968c-0.556-0.44-1.223-0.661-2.002-0.661c-0.778,0-1.381,0.147-1.808,0.44
	c-0.426,0.294-0.792,0.684-1.098,1.17c-0.306,0.486-0.552,1.037-0.737,1.652c-0.186,0.615-0.333,1.244-0.444,1.886
	c-0.167,1.101-0.25,2.248-0.25,3.441v8.507c0,1.175,0.361,1.973,1.084,2.395c0.259,0.165,0.584,0.248,0.973,0.248
	c0.39,0,0.797-0.092,1.224-0.275c-2.132,1.817-3.633,2.937-4.504,3.358c-0.872,0.422-1.567,0.633-2.086,0.633
	c-1.409,0-2.113-0.807-2.113-2.422V82.255c0-0.642,0.009-1.284,0.027-1.927c0.019-0.642-0.046-1.229-0.194-1.762
	c-0.353-1.156-1.362-1.734-3.031-1.734c-0.797,0-1.594,0.147-2.391,0.44c0.481-0.165,1.103-0.596,1.862-1.294
	c1.483-1.322,2.512-2.092,3.087-2.313c1.187-0.422,2.184-0.633,2.989-0.633c0.807,0,1.418,0.147,1.835,0.44
	c0.418,0.294,0.719,0.67,0.904,1.129c0.222,0.569,0.334,1.67,0.334,3.304c2.409-1.89,4.745-3.276,7.007-4.157
	c0.853-0.33,1.622-0.495,2.308-0.495s1.293,0.128,1.821,0.385c0.528,0.257,0.978,0.605,1.349,1.046
	C210.694,75.584,211.129,76.667,211.241,77.933"/>
<path fill="#80BA41" d="M253.396,94.891c-2.54,2.808-5.691,4.561-9.455,5.258c-0.871,0.146-1.946,0.22-3.226,0.22
	s-2.484-0.354-3.614-1.06c-1.131-0.706-2.058-1.619-2.781-2.739c-1.372-2.165-2.058-4.809-2.058-7.928
	c0-2.056,0.797-4.332,2.392-6.828c1.558-2.459,3.457-4.515,5.7-6.166c2.41-1.762,4.689-2.643,6.841-2.643
	c1.112,0,2.048,0.404,2.809,1.211c0.704,0.789,1.057,1.688,1.057,2.698s-0.223,1.941-0.668,2.794
	c-0.444,0.854-1.024,1.684-1.737,2.492c-0.714,0.808-1.529,1.583-2.447,2.326c-0.917,0.743-1.858,1.436-2.822,2.079
	c-1.354,0.918-3.059,1.954-5.117,3.11c0.594,2.221,1.641,3.933,3.143,5.134c1.502,1.203,3.438,1.804,5.812,1.804
	C249.226,96.653,251.282,96.066,253.396,94.891 M244.998,83.852c0.501-0.789,0.751-1.56,0.751-2.313s-0.083-1.39-0.25-1.914
	c-0.167-0.523-0.408-0.986-0.724-1.39c-0.723-0.917-1.659-1.376-2.809-1.376c-2.817,0-4.226,2.845-4.226,8.534
	c0,1.009,0.083,2.009,0.25,3C241.254,87.495,243.589,85.981,244.998,83.852"/>
<path fill="#80BA41" d="M281.48,73.226c-2.242,3.267-4.959,4.9-8.146,4.9c-0.52,0-1.188-0.202-2.002-0.605
	c-1.557-0.771-2.609-1.156-3.156-1.156s-0.988,0.175-1.32,0.523c-0.334,0.349-0.611,0.835-0.834,1.459
	c-0.502,1.358-0.752,3.12-0.752,5.285v10.544c0,1.175,0.361,1.973,1.086,2.395c0.258,0.165,0.582,0.248,0.973,0.248
	c0.389,0,0.797-0.092,1.223-0.275c-0.371,0.33-0.732,0.721-1.084,1.17c-0.354,0.45-0.75,0.886-1.195,1.308
	c-1.057,1.009-2.309,1.515-3.754,1.515c-0.742,0-1.373-0.234-1.893-0.702c-0.518-0.469-0.777-1.042-0.777-1.721V82.255
	c0-0.642,0.01-1.284,0.027-1.927c0.02-0.642-0.045-1.229-0.193-1.762c-0.354-1.156-1.363-1.734-3.031-1.734
	c-0.797,0-1.596,0.147-2.393,0.44c0.482-0.165,1.104-0.596,1.863-1.294c1.482-1.322,2.512-2.092,3.086-2.313
	c1.188-0.422,2.146-0.633,2.879-0.633s1.297,0.105,1.697,0.316c0.396,0.211,0.709,0.5,0.932,0.867
	c0.369,0.605,0.555,1.542,0.555,2.808c0.537-0.403,1.127-0.858,1.766-1.362c0.641-0.505,1.303-0.987,1.988-1.445
	c1.65-1.083,3.086-1.624,4.311-1.624c0.723,0,1.482,0.202,2.279,0.605s1.391,0.698,1.781,0.881c0.389,0.184,0.75,0.275,1.084,0.275
	C279.218,74.354,280.22,73.979,281.48,73.226"/>
<path fill="#80BA41" d="M292.742,78.622c0.354-0.257,0.529-0.532,0.529-0.826c0-0.293-0.176-0.523-0.529-0.688
	c-0.352-0.165-0.76-0.293-1.223-0.385c-0.723-0.146-1.395-0.22-2.016-0.22s-1.104,0.032-1.445,0.097
	c-0.344,0.064-0.637,0.179-0.877,0.344c-0.52,0.349-0.779,0.964-0.779,1.845s0.195,1.601,0.584,2.161
	c0.391,0.56,0.904,1.033,1.545,1.418c0.639,0.385,1.365,0.707,2.182,0.963s1.645,0.509,2.49,0.757
	c0.842,0.248,1.672,0.519,2.488,0.812c0.814,0.293,1.537,0.679,2.168,1.156c1.428,1.027,2.141,2.44,2.141,4.239
	c0,1.78-0.861,3.523-2.586,5.23c-1.465,1.45-3.393,2.68-5.783,3.688c-2.225,0.954-4.209,1.432-5.951,1.432
	c-2.113,0-3.809-0.44-5.088-1.321c-0.465-0.33-0.695-0.757-0.695-1.28c0-0.522,0.24-1,0.723-1.432
	c0.482-0.431,1.047-0.834,1.697-1.211c0.648-0.376,1.297-0.733,1.945-1.073s1.141-0.702,1.475-1.088
	c-0.334,0.367-0.502,0.78-0.502,1.239s0.26,0.849,0.779,1.17s1.131,0.573,1.836,0.757c1.223,0.294,2.4,0.44,3.531,0.44
	s1.951-0.206,2.461-0.619s0.764-1.105,0.764-2.079c0-0.972-0.193-1.766-0.584-2.381c-0.389-0.614-0.898-1.143-1.529-1.583
	s-1.354-0.812-2.168-1.114c-0.816-0.303-1.646-0.597-2.488-0.881c-0.844-0.285-1.674-0.574-2.49-0.867
	c-0.814-0.294-1.537-0.651-2.168-1.074c-1.41-0.936-2.113-2.156-2.113-3.661c0-1.432,0.852-2.964,2.559-4.597
	c1.482-1.395,3.029-2.487,4.643-3.276c2.762-1.321,4.848-1.982,6.258-1.982c1.463,0,2.52,0.156,3.17,0.468
	c0.648,0.312,0.973,0.583,0.973,0.812s-0.074,0.436-0.223,0.62c-0.148,0.183-0.33,0.354-0.543,0.509s-0.43,0.298-0.652,0.427
	s-0.539,0.321-0.945,0.578c-0.408,0.257-0.955,0.602-1.641,1.033S293.335,78.089,292.742,78.622"/>
</svg>
