<?xml version="1.0" encoding="utf-8"?>
<!-- Generator: Adobe Illustrator 16.0.0, SVG Export Plug-In . SVG Version: 6.00 Build 0)  -->
<!DOCTYPE svg PUBLIC "-//W3C//DTD SVG 1.1//EN" "http://www.w3.org/Graphics/SVG/1.1/DTD/svg11.dtd">
<svg version="1.1" id="Layer_1" xmlns="http://www.w3.org/2000/svg" xmlns:xlink="http://www.w3.org/1999/xlink" x="0px" y="0px"
	 width="32px" height="32px" viewBox="0 0 32 32" enable-background="new 0 0 32 32" xml:space="preserve">
<path fill="#FFFFFF" d="M32.081,25.889c0,3.314-2.686,6-6,6h-20c-3.313,0-6-2.686-6-6V5.89c0-3.313,2.687-6,6-6h20
	c3.314,0,6,2.687,6,6V25.889z"/>
<g>
	<path fill="#80B942" d="M15.335,16.251c0,0-7.37-0.75-8.637-8.002c0,0,4.197-0.189,6.093,2.894c0,0-1.105-0.862-4.179-1.411
		c0.045,0.197,0.872,3.963,6.489,6.389L15.335,16.251z"/>
	<path fill="#80B942" d="M13.042,11.834c-0.358-0.301-0.765-0.57-1.223-0.805c-1.015-0.521-2.044-0.75-2.661-0.847
		c0.773,1.953,2.317,3.349,3.529,4.201c0.769,0.541,1.498,0.931,2.016,1.18C14.251,14.865,13.506,13.542,13.042,11.834"/>
	<path fill-rule="evenodd" clip-rule="evenodd" fill="#C67918" d="M19.063,21.623c-3.538,1.043-5.903,4.537-5.704,8.266
		c0.462-1.432,2.718-2.514,6.766-3.246c4.558-1.088,7.12-4.775,7.685-11.059c-1.246,0.254-2.088,1.719-2.521,4.395
		c-0.737,2.449-2.485,3.502-5.243,3.16c0.367-0.221,1.083-0.486,2.147-0.799c1.683-0.65,2.391-1.662,2.126-3.029
		C23.85,20.008,22.098,20.779,19.063,21.623"/>
	<path fill-rule="evenodd" clip-rule="evenodd" fill="#C67918" d="M13.099,21.623c0.932,0.273,1.782,0.719,2.526,1.295
		c-0.084,0.076-0.166,0.154-0.247,0.234c-1.038,1.033-1.796,2.322-2.218,3.713c-0.358-0.076-0.732-0.152-1.124-0.223
		c-4.558-1.088-7.12-4.775-7.685-11.059c1.247,0.254,2.087,1.719,2.521,4.395c0.737,2.449,2.485,3.502,5.243,3.16
		c-0.368-0.221-1.083-0.486-2.147-0.799c-1.682-0.65-2.391-1.662-2.126-3.029C8.312,20.008,10.064,20.779,13.099,21.623"/>
	<path fill="#80B942" d="M16.757,11.9c0.032-0.046,0.066-0.091,0.101-0.137c0.045-0.192,0.085-0.384,0.118-0.577
		c0.204-1.167,0.195-2.345-0.028-3.5c-0.244-1.272-0.698-2.242-0.992-2.776c-0.504,0.786-0.843,1.741-1.011,2.849
		c-0.165,1.083-0.167,2.311-0.007,3.651c0.15,1.26,0.417,2.384,0.629,3.147C15.765,13.717,16.125,12.797,16.757,11.9"/>
	<path fill="#80B942" d="M15.991,17.666c0,0-1.784-8.052,9.343-9.453c0,0-0.458,6.296-8.403,7.919c0,0,5.471-2.421,6.584-6.349
		C23.515,9.784,17.165,10.059,15.991,17.666"/>
	<path fill-rule="evenodd" clip-rule="evenodd" fill="#7B4207" d="M19.215,17.982c-3.269-0.277-5.475-0.084-5.944-0.018
		c-1.397,0.207-2.764,0.422-4.666,1.119c0.323,0.27,0.918,0.547,1.192,0.666c1.107,0.486,2.333,0.854,3.496,1.182
		c1.009,0.285,1.941,0.777,2.771,1.418l0.008,0.006c0.83-0.645,1.774-1.129,2.793-1.422c0.799-0.229,3.88-1.131,4.713-1.863
		C21.767,18.408,20.317,18.09,19.215,17.982"/>
	<path fill="#80B942" d="M16.762,15.761c0.197-0.551,0.548-1.352,1.119-2.175c0.595-0.856,1.312-1.569,2.129-2.118
		c0.867-0.582,1.855-0.981,2.942-1.191c-0.156,0.408-0.448,1.017-0.976,1.712C21.157,13.066,19.602,14.559,16.762,15.761"/>
	<path fill="#80B942" d="M15.505,15.779c0,0-5.589-7.134,0.524-13.889c0,0,3.871,3.964,1.477,8.467c0,0,0.371-3.172-1.526-6.131
		c0,0-2.73,3.137-0.899,9.675L15.505,15.779z"/>
</g>
</svg>
