<?xml version="1.0" encoding="utf-8"?>
<!-- Generator: Adobe Illustrator 16.0.0, SVG Export Plug-In . SVG Version: 6.00 Build 0)  -->
<!DOCTYPE svg PUBLIC "-//W3C//DTD SVG 1.1//EN" "http://www.w3.org/Graphics/SVG/1.1/DTD/svg11.dtd">
<svg version="1.1" id="Layer_1" xmlns="http://www.w3.org/2000/svg" xmlns:xlink="http://www.w3.org/1999/xlink" x="0px" y="0px"
	 width="138px" height="40px" viewBox="0 0 138 40" enable-background="new 0 0 138 40" xml:space="preserve">
<g>
	<path fill="#80BA41" d="M33.288,20.515c0,0-10.529-1.071-12.34-11.432c0,0,5.996-0.27,8.705,4.134c0,0-1.579-1.232-5.97-2.016
		c0.064,0.282,1.245,5.662,9.27,9.128L33.288,20.515z"/>
	<path fill="#80BA41" d="M30.011,14.205c-0.512-0.43-1.093-0.813-1.748-1.149c-1.45-0.745-2.92-1.071-3.801-1.21
		c1.105,2.789,3.311,4.784,5.041,6.001c1.099,0.772,2.14,1.331,2.88,1.686C31.739,18.536,30.673,16.646,30.011,14.205"/>
	<path fill="#C77919" d="M38.613,28.189C33.559,29.68,30.18,34.672,30.466,40c0.66-2.045,3.882-3.592,9.666-4.637
		c6.512-1.557,10.171-6.824,10.979-15.801c-1.781,0.363-2.982,2.456-3.602,6.278c-1.053,3.5-3.55,5.006-7.49,4.516
		c0.525-0.316,1.548-0.695,3.068-1.139c2.403-0.934,3.416-2.375,3.038-4.33C45.452,25.883,42.948,26.984,38.613,28.189"/>
	<path fill="#C77919" d="M30.093,28.189c1.331,0.393,2.546,1.029,3.609,1.85c-0.12,0.109-0.238,0.223-0.353,0.338
		c-1.483,1.475-2.565,3.314-3.17,5.303c-0.511-0.109-1.046-0.217-1.604-0.316c-6.512-1.557-10.171-6.822-10.979-15.801
		c1.782,0.363,2.982,2.456,3.602,6.278c1.053,3.5,3.55,5.006,7.49,4.516c-0.525-0.316-1.548-0.695-3.068-1.139
		c-2.404-0.934-3.416-2.375-3.037-4.33C23.254,25.883,25.757,26.984,30.093,28.189"/>
	<path fill="#80BA41" d="M35.318,14.299c0.046-0.066,0.095-0.13,0.143-0.195c0.064-0.274,0.122-0.549,0.17-0.825
		c0.291-1.667,0.277-3.349-0.04-5c-0.35-1.818-0.998-3.204-1.419-3.965c-0.719,1.122-1.204,2.486-1.444,4.069
		c-0.235,1.547-0.238,3.301-0.01,5.216c0.214,1.801,0.597,3.406,0.9,4.496C33.901,16.896,34.416,15.581,35.318,14.299"/>
	<path fill="#80BA41" d="M34.225,22.537c0,0-2.549-11.503,13.347-13.504c0,0-0.655,8.996-12.006,11.315c0,0,7.817-3.46,9.407-9.07
		C44.973,11.277,35.902,11.669,34.225,22.537"/>
	<path fill="#7B4107" d="M38.829,22.988c-4.669-0.395-7.82-0.119-8.49-0.023c-1.997,0.297-3.949,0.604-6.666,1.602
		c0.461,0.383,1.312,0.777,1.703,0.949c1.583,0.693,3.333,1.221,4.994,1.689c1.442,0.406,2.773,1.109,3.957,2.023l0.012,0.01
		c1.187-0.922,2.534-1.615,3.989-2.033c1.142-0.328,5.543-1.613,6.734-2.662C42.475,23.598,40.404,23.143,38.829,22.988"/>
	<path fill="#80BA41" d="M35.324,19.815c0.284-0.787,0.784-1.932,1.6-3.106c0.85-1.225,1.874-2.243,3.042-3.026
		c1.239-0.832,2.65-1.402,4.203-1.701c-0.223,0.582-0.64,1.453-1.393,2.446C41.605,15.966,39.382,18.098,35.324,19.815"/>
	<path fill="#80BA41" d="M33.53,19.842c0,0-7.984-10.192,0.749-19.842c0,0,5.531,5.663,2.109,12.096c0,0,0.531-4.531-2.18-8.758
		c0,0-3.901,4.482-1.284,13.822L33.53,19.842z"/>
	<path fill="#80BA41" d="M61.252,4.188l1.886-0.009c1.067,0,1.858,0.154,2.373,0.462c0.674,0.396,1.011,1.079,1.011,2.047
		c0,0.906-0.527,1.739-1.582,2.5c-0.292,0.208-0.575,0.405-0.848,0.594c1.531,0.17,2.544,0.792,3.04,1.868
		c0.178,0.377,0.267,0.782,0.267,1.212c0,0.431-0.082,0.82-0.243,1.166c-0.162,0.346-0.378,0.678-0.648,0.995
		s-0.578,0.618-0.924,0.901s-0.704,0.538-1.072,0.764c-1.017,0.611-1.909,0.947-2.678,1.01c-0.546,0.044-1.029,0.066-1.448,0.066
		h-2.144c0.279-0.39,0.448-0.673,0.505-0.85c0.089-0.264,0.133-0.628,0.133-1.094V5.471h-2.096c1.01-0.855,1.626-1.283,1.849-1.283
		L61.252,4.188L61.252,4.188z M60.728,14.49c0,0.724-0.203,1.387-0.61,1.991h2.659c0.743,0,1.292-0.102,1.649-0.307
		c0.355-0.205,0.625-0.453,0.81-0.746c0.184-0.292,0.276-0.681,0.276-1.165s-0.067-0.9-0.2-1.246s-0.314-0.638-0.543-0.877
		c-0.229-0.239-0.499-0.431-0.81-0.576c-0.312-0.145-0.645-0.254-1-0.33c-0.578-0.132-1.322-0.198-2.23-0.198L60.728,14.49
		L60.728,14.49z M60.728,9.792c0.4-0.013,0.898-0.021,1.496-0.023c0.597-0.003,1.029,0.005,1.296,0.023
		c0.635-0.195,1.007-0.569,1.115-1.123c0.032-0.194,0.048-0.415,0.048-0.661c0-1.735-1.096-2.604-3.288-2.604
		c-0.229,0-0.451,0.007-0.667,0.019V9.792L60.728,9.792z"/>
	<path fill="#80BA41" d="M71.381,15.707c0,0.629,0.185,0.943,0.553,0.943c0.127,0,0.321-0.053,0.581-0.16
		c-0.247,0.547-0.619,0.959-1.114,1.235c-0.255,0.145-0.524,0.209-0.811,0.193c-0.285-0.016-0.49-0.093-0.614-0.231
		s-0.221-0.305-0.29-0.5c-0.102-0.308-0.152-0.704-0.152-1.188V5.226c0-0.667-0.118-1.11-0.354-1.331
		c-0.107-0.1-0.244-0.15-0.409-0.15c-0.273,0-0.572,0.044-0.896,0.132c0.775-0.604,1.944-1.393,3.507-2.368v8.651
		c0.793-0.692,1.606-1.163,2.439-1.415c0.305-0.094,0.6-0.141,0.886-0.141s0.558,0.045,0.814,0.137
		c0.258,0.091,0.488,0.218,0.691,0.382c0.451,0.371,0.677,0.833,0.677,1.387v4.802c0,0.83,0.203,1.29,0.609,1.377
		c0.114,0.025,0.235,0.038,0.362,0.038c0.197,0,0.473-0.078,0.829-0.235c-0.527,0.667-1.141,1.104-1.839,1.311
		c-0.241,0.075-0.5,0.113-0.776,0.113c-0.277,0-0.491-0.066-0.644-0.198c-0.152-0.132-0.257-0.299-0.314-0.5
		c-0.057-0.201-0.086-0.421-0.086-0.661V12.33c0-0.962-0.149-1.61-0.447-1.943c-0.273-0.314-0.779-0.472-1.516-0.472
		c-0.984,0-1.534,0.667-1.648,2c-0.025,0.34-0.038,0.654-0.038,0.944L71.381,15.707L71.381,15.707z"/>
	<path fill="#80BA41" d="M87.447,9.612c0.324,0.365,0.577,0.782,0.758,1.25c0.181,0.469,0.271,0.939,0.271,1.411
		c0,0.471-0.07,0.932-0.209,1.382c-0.141,0.45-0.336,0.882-0.587,1.297c-0.251,0.415-0.546,0.804-0.886,1.165
		c-0.34,0.362-0.713,0.678-1.12,0.948c-0.864,0.572-1.737,0.858-2.62,0.858c-1.036,0-1.915-0.399-2.64-1.198
		c-0.705-0.767-1.058-1.666-1.058-2.698c0-0.881,0.271-1.764,0.81-2.651c0.807-1.346,1.906-2.255,3.298-2.727
		c0.444-0.157,0.915-0.236,1.41-0.236s0.967,0.108,1.415,0.326C86.737,8.957,87.123,9.248,87.447,9.612 M82.94,9.678
		c-0.636,0-1.1,0.305-1.392,0.915c-0.229,0.478-0.343,1.019-0.343,1.623s0.081,1.165,0.243,1.684
		c0.161,0.519,0.401,0.983,0.719,1.392c0.705,0.918,1.613,1.377,2.726,1.377c0.648,0,1.118-0.321,1.41-0.962
		c0.21-0.478,0.314-1.028,0.314-1.651c0-1.214-0.342-2.247-1.024-3.099S84.026,9.678,82.94,9.678"/>
	<path fill="#80BA41" d="M97.949,9.612c0.323,0.365,0.576,0.782,0.757,1.25c0.182,0.469,0.271,0.939,0.271,1.411
		c0,0.471-0.069,0.932-0.209,1.382s-0.336,0.882-0.587,1.297c-0.25,0.415-0.546,0.804-0.886,1.165
		c-0.34,0.362-0.713,0.678-1.119,0.948c-0.864,0.572-1.737,0.858-2.621,0.858c-1.035,0-1.915-0.399-2.64-1.198
		c-0.705-0.767-1.058-1.666-1.058-2.698c0-0.881,0.271-1.764,0.81-2.651c0.807-1.346,1.906-2.255,3.297-2.727
		c0.445-0.157,0.915-0.236,1.41-0.236c0.496,0,0.968,0.108,1.416,0.326C97.238,8.957,97.624,9.248,97.949,9.612 M93.441,9.678
		c-0.636,0-1.1,0.305-1.392,0.915c-0.229,0.478-0.344,1.019-0.344,1.623s0.081,1.165,0.243,1.684
		c0.162,0.519,0.402,0.983,0.72,1.392c0.705,0.918,1.614,1.377,2.726,1.377c0.648,0,1.118-0.321,1.41-0.962
		c0.21-0.478,0.315-1.028,0.315-1.651c0-1.214-0.343-2.247-1.025-3.099S94.527,9.678,93.441,9.678"/>
	<path fill="#80BA41" d="M108.078,10.207c1.411-1.069,2.484-1.604,3.221-1.604c0.495,0,0.887,0.204,1.173,0.613
		c0.247,0.346,0.371,0.777,0.371,1.292v4.509c0,0.572,0.035,0.943,0.105,1.114c0.151,0.333,0.477,0.5,0.972,0.5
		c0.254,0,0.495-0.047,0.724-0.142c-0.565,0.484-0.956,0.795-1.172,0.934c-0.495,0.321-0.929,0.481-1.3,0.481
		c-0.373,0-0.637-0.064-0.792-0.193c-0.156-0.129-0.266-0.294-0.328-0.496c-0.07-0.22-0.105-0.673-0.105-1.358v-3.557
		c0-0.692-0.065-1.187-0.195-1.485c-0.131-0.299-0.291-0.524-0.481-0.675c-0.19-0.15-0.414-0.227-0.672-0.227
		c-0.257,0-0.456,0.038-0.595,0.113c-0.14,0.076-0.262,0.173-0.362,0.292c-0.382,0.447-0.572,1.17-0.572,2.17v2.679
		c0,0.466,0.051,0.786,0.152,0.962c0.19,0.333,0.508,0.5,0.953,0.5c0.253,0,0.495-0.047,0.724-0.142
		c-0.565,0.485-0.956,0.796-1.172,0.935c-0.496,0.32-0.929,0.481-1.301,0.481s-0.636-0.064-0.791-0.193s-0.266-0.294-0.328-0.495
		c-0.07-0.22-0.105-0.673-0.105-1.358v-3.558c0-0.692-0.065-1.187-0.195-1.485c-0.13-0.299-0.291-0.524-0.481-0.675
		c-0.19-0.15-0.419-0.227-0.686-0.227c-0.268,0-0.474,0.051-0.619,0.151c-0.146,0.101-0.272,0.234-0.377,0.401
		c-0.105,0.167-0.189,0.355-0.253,0.566c-0.063,0.21-0.114,0.426-0.152,0.646c-0.057,0.377-0.085,0.771-0.085,1.179v2.915
		c0,0.402,0.123,0.676,0.371,0.821c0.089,0.057,0.2,0.085,0.334,0.085c0.133,0,0.273-0.031,0.419-0.094
		c-0.73,0.623-1.245,1.006-1.544,1.151c-0.298,0.145-0.536,0.217-0.715,0.217c-0.482,0-0.724-0.277-0.724-0.83v-5.434
		c0-0.221,0.003-0.44,0.01-0.661c0.006-0.22-0.017-0.421-0.066-0.604c-0.121-0.396-0.467-0.595-1.039-0.595
		c-0.273,0-0.546,0.051-0.819,0.151c0.165-0.056,0.378-0.204,0.638-0.443c0.508-0.453,0.861-0.717,1.058-0.792
		c0.407-0.145,0.749-0.217,1.024-0.217c0.276,0,0.486,0.05,0.629,0.151c0.144,0.101,0.247,0.229,0.31,0.387
		c0.077,0.195,0.115,0.572,0.115,1.132c0.825-0.648,1.626-1.123,2.401-1.425c0.292-0.113,0.556-0.17,0.79-0.17
		c0.236,0,0.444,0.044,0.625,0.132s0.335,0.208,0.461,0.358C107.891,9.402,108.04,9.773,108.078,10.207"/>
	<path fill="#80BA41" d="M120.113,16.603c-0.19,0.151-0.376,0.305-0.558,0.462c-0.181,0.157-0.37,0.302-0.566,0.434
		c-0.457,0.295-0.896,0.443-1.315,0.443c-0.394,0-0.67-0.06-0.828-0.179c-0.324-0.239-0.486-0.679-0.486-1.321v-4.472
		c0-0.679-0.124-1.119-0.372-1.321c-0.114-0.094-0.237-0.141-0.371-0.141s-0.247,0.008-0.339,0.023s-0.186,0.033-0.28,0.052
		c-0.096,0.019-0.194,0.038-0.296,0.057c0.318-0.245,0.614-0.465,0.891-0.66c0.277-0.195,0.514-0.358,0.71-0.491
		c0.197-0.132,0.471-0.319,0.82-0.562c0.35-0.242,0.712-0.46,1.086-0.656v6.661c0,0.642,0.041,1.047,0.124,1.217
		c0.178,0.346,0.572,0.519,1.182,0.519C119.679,16.669,119.878,16.647,120.113,16.603 M118.122,1.754l0.057,1.075V3.32
		c0,0.302-0.037,0.486-0.114,0.552c-0.076,0.066-0.158,0.13-0.248,0.193c-0.355,0.251-0.87,0.591-1.543,1.019
		c0.031-0.629,0.048-0.955,0.048-0.977s-0.017-0.379-0.048-1.071L118.122,1.754z"/>
	<path fill="#80BA41" d="M56.158,21.924c1.036-0.855,1.652-1.283,1.849-1.283h8.319c-0.089,0.013-0.224,0.098-0.405,0.254
		c-0.181,0.158-0.335,0.291-0.462,0.402c-0.127,0.109-0.251,0.209-0.372,0.297c-0.286,0.221-0.493,0.33-0.62,0.33h-4.669v5.133
		h4.622c-0.083,0.012-0.216,0.098-0.4,0.258s-0.34,0.295-0.467,0.402c-0.127,0.107-0.251,0.207-0.372,0.301
		c-0.28,0.221-0.486,0.33-0.62,0.33h-2.763v2.207c0,1.133-0.229,1.926-0.687,2.379h3.059c-0.089,0.012-0.224,0.096-0.405,0.254
		c-0.182,0.156-0.335,0.291-0.462,0.4c-0.127,0.111-0.251,0.213-0.372,0.307c-0.286,0.215-0.493,0.322-0.62,0.322h-3.23
		c0.571-0.881,0.857-1.633,0.857-2.256v-3.613h-1.334c0.444-0.352,0.889-0.697,1.334-1.037v-5.387H56.158z"/>
	<path fill="#80BA41" d="M71.462,31.424l-0.02,0.66c0,0.49,0.141,0.801,0.42,0.934c0.107,0.051,0.231,0.076,0.371,0.076
		c0.223,0,0.451-0.051,0.687-0.15c-0.242,0.1-0.451,0.232-0.629,0.395c-0.179,0.164-0.358,0.324-0.543,0.482
		c-0.458,0.377-0.918,0.564-1.382,0.564s-0.712-0.264-0.744-0.791c-0.013-0.139-0.019-0.277-0.019-0.416
		c-1.144,0.787-2.191,1.18-3.145,1.18c-0.807,0-1.366-0.242-1.677-0.727c-0.114-0.176-0.171-0.418-0.171-0.727
		s0.095-0.617,0.286-0.93c0.191-0.311,0.432-0.596,0.725-0.854c0.521-0.479,1.149-0.871,1.887-1.178
		c0.546-0.234,1.249-0.365,2.106-0.396v-0.416c0-1-0.092-1.676-0.276-2.027c-0.185-0.354-0.422-0.611-0.714-0.779
		c-0.292-0.166-0.636-0.25-1.029-0.25c-0.667,0-1.255,0.129-1.763,0.387c0.699-0.572,1.21-0.949,1.534-1.131
		c0.667-0.371,1.272-0.557,1.815-0.557s0.951,0.078,1.225,0.234c0.273,0.158,0.489,0.365,0.647,0.623
		c0.273,0.453,0.41,1.104,0.41,1.953V31.424L71.462,31.424z M66.983,32.777c0.152,0.109,0.33,0.189,0.533,0.24
		c0.204,0.051,0.505,0.076,0.906,0.076c0.4,0,0.797-0.094,1.191-0.283v-1.98H68.07c-0.553,0-1.036,0.037-1.449,0.113
		c-0.083,0.27-0.124,0.527-0.124,0.773c0,0.244,0.043,0.455,0.129,0.631S66.831,32.666,66.983,32.777"/>
	<path fill="#80BA41" d="M82.393,25.047c-0.77,1.119-1.7,1.678-2.793,1.678c-0.178,0-0.406-0.068-0.686-0.207
		c-0.534-0.264-0.895-0.396-1.082-0.396s-0.338,0.061-0.452,0.18s-0.21,0.287-0.286,0.5c-0.171,0.465-0.257,1.07-0.257,1.811v3.613
		c0,0.404,0.123,0.678,0.371,0.822c0.089,0.057,0.2,0.084,0.334,0.084c0.133,0,0.273-0.031,0.419-0.094
		c-0.127,0.113-0.251,0.248-0.371,0.4c-0.121,0.154-0.258,0.305-0.41,0.449c-0.362,0.346-0.791,0.52-1.286,0.52
		c-0.255,0-0.471-0.08-0.648-0.242c-0.178-0.16-0.267-0.355-0.267-0.59v-5.434c0-0.221,0.003-0.439,0.01-0.66
		c0.006-0.221-0.016-0.422-0.066-0.604c-0.121-0.396-0.468-0.596-1.039-0.596c-0.273,0-0.547,0.051-0.82,0.15
		c0.166-0.055,0.379-0.203,0.639-0.441c0.509-0.453,0.861-0.719,1.058-0.793c0.407-0.145,0.735-0.217,0.986-0.217
		s0.444,0.035,0.581,0.107s0.243,0.172,0.319,0.297c0.127,0.207,0.191,0.529,0.191,0.963c0.184-0.139,0.386-0.295,0.604-0.467
		c0.219-0.174,0.446-0.338,0.682-0.496c0.565-0.371,1.058-0.557,1.477-0.557c0.248,0,0.509,0.07,0.781,0.209
		c0.273,0.139,0.477,0.238,0.61,0.301s0.257,0.094,0.371,0.094C81.617,25.432,81.96,25.305,82.393,25.047"/>
	<path fill="#80BA41" d="M89.987,26.66c1.409-1.07,2.483-1.605,3.22-1.605c0.496,0,0.887,0.205,1.173,0.613
		c0.248,0.346,0.372,0.777,0.372,1.293v4.51c0,0.572,0.034,0.943,0.104,1.113c0.152,0.332,0.477,0.5,0.972,0.5
		c0.254,0,0.496-0.049,0.725-0.143c-0.565,0.484-0.956,0.797-1.173,0.936c-0.495,0.32-0.929,0.48-1.3,0.48
		c-0.372,0-0.636-0.064-0.792-0.193c-0.155-0.129-0.265-0.295-0.329-0.496c-0.069-0.219-0.104-0.672-0.104-1.357v-3.557
		c0-0.691-0.064-1.188-0.195-1.486c-0.13-0.299-0.29-0.523-0.48-0.674c-0.191-0.152-0.415-0.227-0.672-0.227
		c-0.258,0-0.456,0.037-0.596,0.113c-0.14,0.074-0.261,0.172-0.362,0.293c-0.381,0.445-0.572,1.168-0.572,2.17v2.678
		c0,0.467,0.051,0.787,0.153,0.963c0.19,0.334,0.508,0.5,0.952,0.5c0.254,0,0.496-0.047,0.725-0.141
		c-0.565,0.484-0.957,0.795-1.173,0.934c-0.495,0.32-0.929,0.48-1.301,0.48c-0.371,0-0.635-0.064-0.791-0.193
		c-0.155-0.129-0.265-0.293-0.328-0.494c-0.07-0.221-0.105-0.674-0.105-1.359v-3.557c0-0.691-0.064-1.188-0.194-1.486
		c-0.131-0.299-0.291-0.523-0.481-0.674c-0.19-0.152-0.42-0.227-0.687-0.227s-0.474,0.051-0.619,0.15
		c-0.146,0.1-0.272,0.234-0.377,0.4s-0.188,0.355-0.253,0.566c-0.063,0.211-0.113,0.426-0.151,0.646
		c-0.058,0.377-0.086,0.77-0.086,1.18v2.914c0,0.402,0.124,0.678,0.372,0.822c0.088,0.055,0.199,0.084,0.333,0.084
		s0.272-0.031,0.42-0.094c-0.731,0.623-1.245,1.006-1.544,1.15s-0.537,0.217-0.715,0.217c-0.483,0-0.724-0.277-0.724-0.83v-5.434
		c0-0.221,0.003-0.439,0.009-0.66s-0.016-0.422-0.066-0.604c-0.121-0.396-0.467-0.596-1.039-0.596c-0.273,0-0.546,0.051-0.819,0.15
		c0.165-0.055,0.378-0.203,0.638-0.441c0.509-0.453,0.861-0.719,1.059-0.793c0.406-0.145,0.748-0.217,1.024-0.217
		s0.485,0.051,0.629,0.15c0.143,0.1,0.246,0.229,0.31,0.387c0.076,0.195,0.114,0.572,0.114,1.131
		c0.825-0.646,1.626-1.121,2.401-1.424c0.292-0.113,0.556-0.17,0.791-0.17c0.234,0,0.442,0.045,0.624,0.133
		c0.181,0.088,0.335,0.207,0.462,0.357C89.799,25.854,89.948,26.225,89.987,26.66"/>
	<path fill="#80BA41" d="M104.434,32.471c-0.871,0.963-1.95,1.563-3.24,1.801c-0.299,0.051-0.667,0.076-1.105,0.076
		s-0.852-0.121-1.238-0.363c-0.388-0.242-0.706-0.555-0.953-0.938c-0.471-0.742-0.706-1.648-0.706-2.717
		c0-0.705,0.273-1.484,0.82-2.34c0.533-0.844,1.185-1.549,1.953-2.113c0.826-0.605,1.606-0.906,2.345-0.906
		c0.381,0,0.701,0.139,0.962,0.414c0.241,0.271,0.362,0.58,0.362,0.926s-0.076,0.664-0.229,0.957s-0.352,0.578-0.596,0.854
		c-0.245,0.277-0.523,0.543-0.838,0.797c-0.314,0.256-0.637,0.492-0.968,0.713c-0.464,0.314-1.048,0.67-1.754,1.066
		c0.204,0.76,0.563,1.348,1.078,1.76s1.178,0.617,1.991,0.617C103.004,33.074,103.709,32.873,104.434,32.471 M101.556,28.688
		c0.171-0.27,0.257-0.535,0.257-0.793s-0.028-0.477-0.086-0.656c-0.057-0.178-0.14-0.338-0.248-0.477
		c-0.247-0.313-0.568-0.471-0.962-0.471c-0.966,0-1.448,0.975-1.448,2.924c0,0.348,0.028,0.689,0.085,1.029
		C100.272,29.936,101.072,29.418,101.556,28.688"/>
	<path fill="#80BA41" d="M114.058,25.047c-0.769,1.119-1.699,1.678-2.792,1.678c-0.178,0-0.407-0.068-0.686-0.207
		c-0.534-0.264-0.895-0.396-1.082-0.396s-0.339,0.061-0.452,0.18c-0.114,0.119-0.209,0.287-0.286,0.5
		c-0.172,0.465-0.258,1.07-0.258,1.811v3.613c0,0.404,0.124,0.678,0.372,0.822c0.089,0.057,0.2,0.084,0.334,0.084
		c0.133,0,0.273-0.031,0.419-0.094c-0.127,0.113-0.251,0.248-0.371,0.4c-0.122,0.154-0.258,0.305-0.409,0.449
		c-0.363,0.346-0.792,0.52-1.287,0.52c-0.254,0-0.471-0.08-0.648-0.242c-0.178-0.16-0.267-0.355-0.267-0.59v-5.434
		c0-0.221,0.004-0.439,0.01-0.66c0.007-0.221-0.016-0.422-0.066-0.604c-0.121-0.396-0.467-0.596-1.039-0.596
		c-0.272,0-0.547,0.051-0.82,0.15c0.165-0.055,0.379-0.203,0.639-0.441c0.508-0.453,0.861-0.719,1.058-0.793
		c0.407-0.145,0.735-0.217,0.986-0.217c0.252,0,0.444,0.035,0.582,0.107c0.136,0.072,0.243,0.172,0.319,0.297
		c0.126,0.207,0.19,0.529,0.19,0.963c0.184-0.139,0.386-0.295,0.605-0.467c0.219-0.174,0.446-0.338,0.681-0.496
		c0.565-0.371,1.058-0.557,1.478-0.557c0.247,0,0.508,0.07,0.781,0.209c0.272,0.137,0.477,0.238,0.61,0.301
		c0.133,0.063,0.257,0.094,0.371,0.094C113.282,25.432,113.626,25.305,114.058,25.047"/>
	<path fill="#80BA41" d="M117.917,26.895c0.121-0.088,0.182-0.182,0.182-0.283c0-0.1-0.061-0.178-0.182-0.234
		c-0.12-0.057-0.261-0.102-0.419-0.133c-0.248-0.049-0.479-0.074-0.691-0.074s-0.378,0.01-0.495,0.033
		c-0.118,0.021-0.218,0.061-0.3,0.117c-0.179,0.119-0.268,0.33-0.268,0.633c0,0.301,0.067,0.549,0.2,0.74
		c0.134,0.191,0.31,0.354,0.529,0.486c0.219,0.131,0.468,0.242,0.748,0.33s0.563,0.174,0.854,0.258
		c0.288,0.086,0.572,0.18,0.853,0.279c0.278,0.1,0.526,0.232,0.743,0.396c0.489,0.352,0.733,0.836,0.733,1.453
		c0,0.609-0.295,1.207-0.887,1.791c-0.502,0.498-1.162,0.918-1.981,1.264c-0.763,0.328-1.442,0.49-2.039,0.49
		c-0.725,0-1.306-0.15-1.744-0.451c-0.159-0.113-0.238-0.26-0.238-0.439c0-0.178,0.082-0.342,0.248-0.49
		c0.165-0.148,0.358-0.287,0.581-0.416c0.223-0.127,0.445-0.25,0.667-0.367c0.223-0.115,0.391-0.24,0.505-0.373
		c-0.114,0.127-0.172,0.268-0.172,0.426c0,0.156,0.09,0.291,0.268,0.4s0.388,0.197,0.629,0.26c0.419,0.1,0.822,0.15,1.21,0.15
		s0.669-0.07,0.844-0.213c0.175-0.141,0.262-0.377,0.262-0.711s-0.066-0.605-0.2-0.816s-0.308-0.393-0.523-0.543
		c-0.217-0.15-0.465-0.277-0.743-0.381c-0.28-0.104-0.564-0.205-0.853-0.303c-0.29-0.098-0.574-0.197-0.854-0.297
		c-0.279-0.102-0.526-0.223-0.743-0.369c-0.483-0.32-0.724-0.738-0.724-1.254c0-0.49,0.291-1.016,0.877-1.574
		c0.508-0.479,1.038-0.854,1.591-1.123c0.946-0.453,1.661-0.68,2.145-0.68c0.501,0,0.863,0.053,1.086,0.16s0.334,0.199,0.334,0.279
		c0,0.078-0.025,0.148-0.077,0.211c-0.051,0.063-0.112,0.123-0.186,0.176s-0.147,0.102-0.224,0.146
		c-0.076,0.043-0.185,0.109-0.323,0.197c-0.141,0.088-0.327,0.207-0.563,0.354C118.341,26.549,118.12,26.713,117.917,26.895"/>
</g>
</svg>
