<?xml version="1.0" encoding="utf-8"?>
<!-- Generator: Adobe Illustrator 16.0.0, SVG Export Plug-In . SVG Version: 6.00 Build 0)  -->
<!DOCTYPE svg PUBLIC "-//W3C//DTD SVG 1.1//EN" "http://www.w3.org/Graphics/SVG/1.1/DTD/svg11.dtd">
<svg version="1.1" id="Layer_1" xmlns="http://www.w3.org/2000/svg" xmlns:xlink="http://www.w3.org/1999/xlink" x="0px" y="0px"
	 width="14px" height="17px" viewBox="0 0 14 17" enable-background="new 0 0 14 17" xml:space="preserve">
<path fill="#69C328" d="M10.334,9.834H9.916c-0.582-1.084-1-2.5-1.416-3.917l0.75,0.75c2.25,1.75,4.25,1.417,4.25,1.417
	s0.584-3.167-1.666-4.833c-1.918-1.5-3.668-1.5-4.168-1.417c-0.082-0.5-0.082-0.917-0.166-1.25L6.333,0.667
	c0,2.667-2.25,7.583-3,9.167c-1.667,0.166-3,1.582-3,3.332c0,1.834,1.5,3.334,3.333,3.334c0.917,0,1.667-0.334,2.25-0.916
	C5.583,14.834,5.333,14,5.333,13.166c0-0.832,0.25-1.666,0.583-2.416c-0.333-0.334-0.833-0.584-1.25-0.75
	C5.25,8.75,6.25,6.5,6.917,4.333C7.25,6.25,7.916,8.5,8.75,10.25C7.75,10.834,7,11.916,7,13.166C7,15,8.5,16.5,10.334,16.5
	c1.832,0,3.332-1.5,3.332-3.334C13.666,11.334,12.166,9.834,10.334,9.834z M3.667,11.916c-0.667,0-1.25,0.584-1.25,1.25H1.583
	c0-1.166,0.917-2.082,2.083-2.082V11.916z M10.334,11.916c-0.668,0-1.25,0.584-1.25,1.25H8.25c0-1.166,0.916-2.082,2.084-2.082
	V11.916z"/>
</svg>
