<?xml version="1.0" encoding="utf-8"?>
<!-- Generator: Adobe Illustrator 16.0.0, SVG Export Plug-In . SVG Version: 6.00 Build 0)  -->
<!DOCTYPE svg PUBLIC "-//W3C//DTD SVG 1.1//EN" "http://www.w3.org/Graphics/SVG/1.1/DTD/svg11.dtd">
<svg version="1.1" id="Layer_1" xmlns="http://www.w3.org/2000/svg" xmlns:xlink="http://www.w3.org/1999/xlink" x="0px" y="0px"
	 width="12px" height="19px" viewBox="0 0 12 19" enable-background="new 0 0 12 19" xml:space="preserve">
<path fill="#69C328" d="M7.666,10c0,0.916-0.75,1.666-1.666,1.666c-0.917,0-1.667-0.75-1.667-1.666c0-0.917,0.75-1.667,1.667-1.667
	C6.916,8.333,7.666,9.083,7.666,10z M1.833,8.333c-0.917,0-1.667,0.75-1.667,1.667c0,0.916,0.75,1.666,1.667,1.666
	C2.75,11.666,3.5,10.916,3.5,10C3.5,9.083,2.75,8.333,1.833,8.333z M10.166,8.333C9.25,8.333,8.5,9.083,8.5,10
	c0,0.916,0.75,1.666,1.666,1.666c0.918,0,1.668-0.75,1.668-1.666C11.834,9.083,11.084,8.333,10.166,8.333z M8.084,5
	C7.166,5,6.417,5.75,6.417,6.667c0,0.917,0.75,1.667,1.667,1.667C9,8.333,9.75,7.583,9.75,6.667C9.75,5.75,9,5,8.084,5z M3.917,5
	C3,5,2.25,5.75,2.25,6.667c0,0.917,0.75,1.667,1.667,1.667c0.917,0,1.667-0.75,1.667-1.667C5.583,5.75,4.833,5,3.917,5z
	 M8.084,11.666c-0.918,0-1.667,0.75-1.667,1.668C6.417,14.25,7.166,15,8.084,15C9,15,9.75,14.25,9.75,13.334
	C9.75,12.416,9,11.666,8.084,11.666z M3.917,11.666c-0.917,0-1.667,0.75-1.667,1.668C2.25,14.25,3,15,3.917,15
	c0.917,0,1.667-0.75,1.667-1.666C5.583,12.416,4.833,11.666,3.917,11.666z M6,15c-0.917,0-1.667,0.75-1.667,1.666
	c0,0.918,0.75,1.668,1.667,1.668c0.916,0,1.666-0.75,1.666-1.668C7.666,15.75,6.916,15,6,15z M8,1.833l-0.666-1
	c-1.834,0.833-2,3.833-2,4.167h1.25C6.666,4.333,6.916,2.25,8,1.833z"/>
</svg>
