<?xml version="1.0" encoding="utf-8"?>
<!-- Generator: Adobe Illustrator 16.0.0, SVG Export Plug-In . SVG Version: 6.00 Build 0)  -->
<!DOCTYPE svg PUBLIC "-//W3C//DTD SVG 1.1//EN" "http://www.w3.org/Graphics/SVG/1.1/DTD/svg11.dtd">
<svg version="1.1" id="Layer_1" xmlns="http://www.w3.org/2000/svg" xmlns:xlink="http://www.w3.org/1999/xlink" x="0px" y="0px"
	 width="32px" height="32px" viewBox="0 0 32 32" enable-background="new 0 0 32 32" xml:space="preserve">
<path fill="#FFFFFF" d="M32,26c0,3.313-2.687,6-6,6H6c-3.313,0-6-2.687-6-6V6c0-3.313,2.687-6,6-6h20c3.313,0,6,2.687,6,6V26z"/>
<path fill="#F16127" d="M27.718,8.391c-0.061,0.207-0.114,0.384-0.131,0.572c-0.041,0.477,0.079,0.914,0.328,1.317
	c0.275,0.447,0.547,0.896,0.776,1.37c0.388,0.8,0.69,1.627,0.843,2.506c0.154,0.882,0.121,1.763-0.026,2.642
	c-0.276,1.628-0.905,3.121-1.811,4.49c-2.011,3.035-4.708,5.234-8.093,6.58c-1.089,0.434-2.22,0.705-3.387,0.816
	c-1.135,0.107-2.256,0.027-3.363-0.252c-0.144-0.035-0.233-0.102-0.293-0.242c-0.459-1.076-0.789-2.193-1.024-3.336
	c-0.241-1.174-0.361-2.361-0.346-3.559c0.025-1.898,0.375-3.732,1.147-5.474c0.952-2.149,2.283-4.025,4.061-5.573
	c1.03-0.897,2.18-1.598,3.489-2.016c1.573-0.504,3.154-0.498,4.742-0.068c0.626,0.167,1.258,0.31,1.906,0.347
	c0.364,0.021,0.72,0,1.068-0.105C27.633,8.397,27.661,8.398,27.718,8.391z M20.559,21.031c0.008-0.121-0.033-0.289-0.104-0.449
	c-0.165-0.369-0.374-0.699-0.698-0.967c-0.295-0.242-0.579-0.494-0.918-0.676c-0.45-0.244-0.922-0.402-1.447-0.303
	c-0.727,0.137-1.221,0.762-1.163,1.482c0.027,0.336,0.178,0.623,0.391,0.873c0.449,0.525,0.979,0.951,1.603,1.254
	c0.228,0.109,0.468,0.186,0.719,0.219C19.728,22.564,20.543,22.059,20.559,21.031z M22.573,18.207
	c-0.001-0.164-0.048-0.334-0.117-0.502c-0.173-0.422-0.444-0.761-0.797-1.054c-0.402-0.334-0.817-0.634-1.317-0.802
	c-0.334-0.111-0.673-0.149-1.02-0.063c-0.761,0.189-1.231,0.919-1.058,1.653c0.071,0.301,0.232,0.557,0.438,0.781
	c0.403,0.436,0.857,0.809,1.385,1.088c0.308,0.166,0.631,0.281,0.982,0.297C21.872,19.639,22.534,19.113,22.573,18.207z
	 M23.163,16.652c1.075,0,1.587-1.071,1.188-1.858c-0.184-0.361-0.421-0.663-0.731-0.919c-0.313-0.256-0.632-0.497-1.008-0.655
	c-0.342-0.145-0.694-0.221-1.071-0.157c-0.752,0.128-1.248,0.846-1.073,1.57c0.056,0.234,0.171,0.444,0.327,0.624
	c0.437,0.508,0.945,0.924,1.558,1.205C22.608,16.581,22.877,16.658,23.163,16.652z M17.022,24.871
	c1.061,0.025,1.549-1.002,1.166-1.73c-0.151-0.289-0.328-0.549-0.581-0.766c-0.317-0.271-0.644-0.527-1.03-0.695
	c-0.301-0.133-0.616-0.195-0.945-0.152c-0.827,0.109-1.357,0.967-0.943,1.756c0.057,0.107,0.122,0.211,0.203,0.303
	c0.39,0.451,0.843,0.822,1.38,1.084C16.52,24.791,16.779,24.873,17.022,24.871z M22.572,11.771c0,0.352,0.155,0.643,0.38,0.893
	c0.38,0.428,0.82,0.784,1.344,1.026c0.169,0.08,0.346,0.138,0.531,0.168c0.47,0.077,0.883-0.043,1.18-0.414
	c0.313-0.393,0.353-0.835,0.123-1.294c-0.146-0.293-0.341-0.541-0.594-0.755c-0.32-0.271-0.649-0.52-1.042-0.677
	c-0.278-0.112-0.566-0.157-0.865-0.119C23.031,10.672,22.57,11.186,22.572,11.771z M22.652,20.262
	c-0.002,0.244,0.042,0.441,0.19,0.65c0.373,0.523,0.851,0.916,1.472,1.107c0.37,0.115,0.724,0.061,1.055-0.141
	c0.601-0.363,0.829-1.072,0.57-1.719c-0.128-0.322-0.367-0.543-0.618-0.758c-0.26-0.223-0.548-0.393-0.881-0.482
	C23.466,18.658,22.649,19.492,22.652,20.262z M18.261,15.046c0.007-0.084-0.024-0.203-0.058-0.32
	c-0.104-0.369-0.332-0.646-0.618-0.887c-0.215-0.182-0.442-0.347-0.704-0.454c-0.589-0.241-1.13-0.157-1.592,0.287
	c-0.395,0.38-0.671,1.048-0.209,1.678c0.358,0.491,0.819,0.863,1.413,1.048C17.371,16.672,18.216,15.985,18.261,15.046z
	 M13.331,25.055c0.002,0.297,0.139,0.537,0.332,0.75c0.208,0.23,0.445,0.43,0.704,0.6c0.242,0.16,0.5,0.285,0.791,0.33
	c0.368,0.057,0.695-0.043,0.927-0.334c0.242-0.305,0.295-0.65,0.112-1.012c-0.318-0.625-0.844-1-1.487-1.23
	c-0.18-0.064-0.368-0.066-0.555-0.039C13.685,24.184,13.33,24.588,13.331,25.055z M22.241,24.43
	c0.804,0.018,1.364-0.893,1.069-1.539c-0.121-0.266-0.298-0.469-0.512-0.652c-0.188-0.156-0.393-0.287-0.625-0.373
	c-0.681-0.25-1.333,0.16-1.536,0.764c-0.092,0.271-0.08,0.545,0.078,0.787c0.316,0.484,0.745,0.83,1.313,0.98
	C22.098,24.416,22.17,24.42,22.241,24.43z M14.573,16.632c-0.352-0.002-0.685,0.153-0.904,0.415
	c-0.326,0.391-0.395,0.854-0.141,1.238c0.297,0.447,0.702,0.783,1.229,0.932c0.44,0.123,0.833,0.004,1.129-0.346
	c0.29-0.342,0.398-0.732,0.204-1.164c-0.234-0.516-0.658-0.819-1.171-1.018C14.805,16.645,14.682,16.638,14.573,16.632z
	 M26.155,18.555c0.77,0.018,1.328-0.863,1.036-1.502c-0.221-0.483-0.6-0.785-1.065-0.982c-0.693-0.297-1.319,0.119-1.535,0.672
	c-0.115,0.294-0.105,0.583,0.069,0.845c0.29,0.439,0.684,0.754,1.187,0.922C25.95,18.543,26.057,18.559,26.155,18.555z
	 M18.852,11.032c-0.362-0.006-0.63,0.124-0.855,0.34c-0.382,0.372-0.463,0.902-0.177,1.317c0.279,0.404,0.653,0.708,1.127,0.864
	c0.448,0.148,0.848,0.038,1.155-0.312c0.308-0.352,0.409-0.759,0.188-1.199c-0.253-0.503-0.678-0.805-1.204-0.976
	C18.996,11.04,18.904,11.032,18.852,11.032z M21.535,9.39c-0.139-0.006-0.265,0.02-0.381,0.081
	c-0.397,0.208-0.652,0.529-0.748,0.974c-0.042,0.202,0.01,0.384,0.125,0.55c0.108,0.156,0.246,0.281,0.407,0.379
	c0.32,0.196,0.638,0.187,0.952-0.021c0.261-0.175,0.428-0.419,0.538-0.709c0.246-0.658-0.372-1.222-0.855-1.254
	C21.558,9.389,21.543,9.39,21.535,9.39z M26.975,15.494c0.134,0.006,0.265-0.029,0.386-0.097c0.382-0.214,0.601-0.546,0.689-0.969
	c0.015-0.072,0.006-0.143-0.004-0.214c-0.046-0.338-0.258-0.553-0.529-0.72c-0.267-0.164-0.545-0.169-0.821-0.025
	c-0.334,0.176-0.556,0.449-0.682,0.802c-0.056,0.16-0.064,0.323-0.022,0.488C26.064,15.041,26.542,15.519,26.975,15.494z
	 M13.513,19.918c-0.386,0.018-0.661,0.23-0.869,0.529c-0.403,0.576-0.324,1.059,0.323,1.465c0.303,0.191,0.612,0.174,0.913-0.02
	c0.252-0.16,0.415-0.391,0.533-0.66C14.73,20.516,14.021,19.9,13.513,19.918z M19.577,24.285c-0.105-0.004-0.221,0.016-0.325,0.064
	c-0.393,0.186-0.65,0.494-0.765,0.91c-0.061,0.223-0.035,0.443,0.109,0.637c0.123,0.162,0.271,0.299,0.448,0.398
	c0.281,0.156,0.563,0.156,0.84-0.006c0.293-0.168,0.48-0.424,0.602-0.734C20.757,24.863,20.079,24.277,19.577,24.285z"/>
<path fill="#069548" d="M27.568,6.87c-0.451,0.146-0.886,0.338-1.327,0.507c-0.142,0.055-0.265,0.066-0.413,0.019
	c-0.728-0.236-1.477-0.369-2.235-0.454c-0.622-0.07-1.246-0.098-1.873-0.089c-1.622,0.02-3.208,0.27-4.756,0.752
	c-2.755,0.861-5.246,2.226-7.51,4.011c-1.208,0.953-2.306,2.017-3.269,3.219c-0.049,0.062-0.107,0.116-0.138,0.191
	c-0.01,0.002-0.017,0.009-0.02,0.019c-0.079,0.05-0.125,0.121-0.142,0.219c0.084-0.035,0.152-0.085,0.196-0.164
	c0.011-0.006,0.018-0.013,0.021-0.024c0.472-0.412,0.938-0.83,1.426-1.22c1.645-1.32,3.392-2.478,5.312-3.361
	c0.844-0.388,1.712-0.712,2.614-0.944c0.042-0.011,0.083-0.021,0.125-0.029c0.014-0.003,0.028,0.003,0.042,0.004
	c0.021,0.044-0.012,0.064-0.038,0.087c-1.371,1.229-2.448,2.686-3.335,4.292c-0.691,1.25-1.223,2.568-1.616,3.944
	c-0.059,0.207-0.061,0.203-0.269,0.229c-0.943,0.113-1.889,0.191-2.836,0.244c-1.273,0.072-2.546,0.096-3.817-0.037
	c-0.53-0.055-1.055-0.139-1.559-0.324c-0.169-0.061-0.171-0.063-0.134-0.242c0.235-1.132,0.609-2.218,1.091-3.268
	c1.369-2.982,3.308-5.536,5.816-7.651c1.457-1.231,3.061-2.22,4.865-2.865c1.154-0.412,2.342-0.644,3.568-0.661
	c1.384-0.019,2.698,0.27,3.93,0.915c0.612,0.32,1.203,0.676,1.81,1.008c0.664,0.365,1.35,0.681,2.104,0.811
	c0.748,0.128,1.49,0.117,2.211-0.158c0.326-0.126,0.614-0.312,0.871-0.549c0.101-0.093,0.202-0.183,0.311-0.268
	c0.145-0.114,0.309-0.127,0.462-0.025c0.276,0.182,0.549,0.369,0.812,0.57c0.172,0.13,0.172,0.221,0.024,0.374
	c-0.089,0.093-0.19,0.175-0.29,0.258c-0.487,0.406-0.964,0.821-1.361,1.32c-0.14,0.175-0.268,0.356-0.374,0.554
	c-0.028,0.056-0.048,0.12-0.13,0.125c-0.366,0.027-0.729-0.002-1.12-0.056c0.38-0.403,0.708-0.808,0.977-1.256
	c0.011-0.008,0.029-0.025,0.028-0.027C27.604,6.845,27.586,6.854,27.568,6.87z"/>
</svg>
