<?xml version="1.0" encoding="utf-8"?>
<!-- Generator: Adobe Illustrator 16.0.0, SVG Export Plug-In . SVG Version: 6.00 Build 0)  -->
<!DOCTYPE svg PUBLIC "-//W3C//DTD SVG 1.1//EN" "http://www.w3.org/Graphics/SVG/1.1/DTD/svg11.dtd">
<svg version="1.1" id="Layer_1" xmlns="http://www.w3.org/2000/svg" xmlns:xlink="http://www.w3.org/1999/xlink" x="0px" y="0px"
	 width="20px" height="20px" viewBox="0 0 20 20" enable-background="new 0 0 20 20" xml:space="preserve">
<path fill="#69C328" d="M13.004,5.84c0.813,0.124,1.59-0.56,1.799-1.933c0.21-1.373-0.709-3.69-0.762-3.697
	c-0.076-0.013-1.973,1.876-2.182,3.249C11.652,4.832,12.191,5.715,13.004,5.84z"/>
<path fill="#69C328" d="M11.471,6.745c0-1.54-1.393-3.923-1.449-3.922c-0.086,0-1.848,2.382-1.848,3.922
	c0,1.54,0.737,2.416,1.649,2.416C10.733,9.161,11.471,8.284,11.471,6.745z"/>
<path fill="#69C328" d="M6.409,5.641c-0.085,0-1.847,2.385-1.848,3.923c0,1.538,0.738,2.417,1.65,2.417
	c0.91,0,1.648-0.879,1.649-2.417C7.86,8.025,6.466,5.64,6.409,5.641z"/>
<path fill="#69C328" d="M15.842,5.001c-1.375,0.194-2.068,0.965-1.951,1.78c0.116,0.813,0.994,1.363,2.369,1.167
	c1.375-0.197,3.282-2.073,3.271-2.15C19.523,5.747,17.217,4.805,15.842,5.001z"/>
<path fill="#69C328" d="M13.067,11.639c1.539,0,3.923-1.762,3.923-1.847c0.001-0.058-2.384-1.451-3.923-1.451
	c-1.54,0-2.416,0.738-2.416,1.649C10.651,10.9,11.527,11.639,13.067,11.639z"/>
<path fill="#69C328" d="M14.062,13.296c0.001-0.058-2.384-1.452-3.923-1.452c-1.539,0.001-2.417,0.738-2.417,1.649
	s0.878,1.651,2.417,1.651C11.678,15.143,14.062,13.381,14.062,13.296z"/>
<path fill="#69C328" d="M16.018,3.725c0.551,0.551,1.529,0.467,2.462-0.465c0.931-0.931,1.532-3.22,1.497-3.255
	c-0.053-0.052-2.564,0.326-3.494,1.257C15.55,2.193,15.465,3.173,16.018,3.725z"/>
<path fill="#69C328" d="M7.031,12.373C7.017,12.371,7,12.372,6.987,12.369l-6.963,6.602c-0.06,0.079-0.011,0.35,0.185,0.545
	c0.198,0.197,0.452,0.264,0.531,0.201l3.124-3.275l3.512-3.68c0.011-0.041-0.034-0.158-0.131-0.256
	C7.168,12.431,7.08,12.391,7.031,12.373z"/>
</svg>
